<svg xmlns:dc="http://purl.org/dc/elements/1.1/" xmlns:cc="http://creativecommons.org/ns#" xmlns:rdf="http://www.w3.org/1999/02/22-rdf-syntax-ns#" xmlns:svg="http://www.w3.org/2000/svg" xmlns="http://www.w3.org/2000/svg" viewBox="0 0 280 280" fill="none"><metadata><rdf:RDF><cc:Work><dc:format>image/svg+xml</dc:format><dc:type rdf:resource="http://purl.org/dc/dcmitype/StillImage"/><dc:title>Avataaars</dc:title><dc:creator><cc:Agent><dc:title>Pablo Stanley</dc:title></cc:Agent></dc:creator><dc:source>https://avataaars.com/</dc:source><cc:license rdf:resource="https://avataaars.com/"/><dc:contributor><cc:Agent><dc:title>Florian Körner</dc:title></cc:Agent></dc:contributor></cc:Work></rdf:RDF></metadata><mask id="avatarsRadiusMask"><rect width="280" height="280" rx="0" ry="0" x="0" y="0" fill="#fff"/></mask><g mask="url(#avatarsRadiusMask)"><g transform="translate(40, 36)"><path d="M100 0C69.072 0 44 25.072 44 56v6.166c-5.675.952-10 5.888-10 11.834v14c0 6.052 4.48 11.058 10.305 11.881 2.067 19.806 14.458 36.541 31.695 44.73V163h-4c-39.764 0-72 32.236-72 72v9h200v-9c0-39.764-32.236-72-72-72h-4v-18.389c17.237-8.189 29.628-24.924 31.695-44.73C161.52 99.058 166 94.052 166 88V74c0-5.946-4.325-10.882-10-11.834V56c0-30.928-25.072-56-56-56z" fill="#FFDBB4"/><path d="M76 144.611v8A55.79 55.79 0 00100 158a55.789 55.789 0 0024-5.389v-8A55.789 55.789 0 01100 150a55.79 55.79 0 01-24-5.389z" fill="#000" fill-opacity=".1"/></g><g transform="translate(8, 170)"><path d="M132.5 51.828c18.502 0 33.5-9.617 33.5-21.48 0-.353-.013-.704-.04-1.053 36.976 3.03 66.04 34 66.04 71.757V110H32v-8.948c0-38.1 29.592-69.287 67.045-71.833-.03.374-.045.75-.045 1.129 0 11.863 14.998 21.48 33.5 21.48z" fill="#E6E6E6"/><path d="M132.5 58.761c21.89 0 39.635-12.05 39.635-26.913 0-.603-.029-1.2-.086-1.793a72.056 72.056 0 00-6.089-.76c.027.349.04.7.04 1.053 0 11.863-14.998 21.48-33.5 21.48-18.502 0-33.5-9.617-33.5-21.48 0-.379.015-.755.045-1.128-2.05.139-4.077.364-6.077.672a18.594 18.594 0 00-.103 1.956c0 14.864 17.745 26.913 39.635 26.913z" fill="#000" fill-opacity=".16"/><path d="M100.778 29.122c.072-.378.145-.752.222-1.122-2.959.054-6 1-6 1l-.42.662C59.267 34.276 32 64.48 32 101.052V110h74s-10.7-51.555-5.238-80.793l.023-.085h-.007zM158 110s11-53 5-82c2.959.054 6 1 6 1l.419.662C204.733 34.276 232 64.48 232 101.052V110h-74z" fill="#E5E5E5"/><path fill-rule="evenodd" clip-rule="evenodd" d="M101 28c-6 29 5 82 5 82H90L76 74l6-9-6-6 19-30s3.041-.946 6-1zm62 0c6 29-5 82-5 82h16l14-36-6-9 6-6-19-30s-3.041-.946-6-1z" fill="#000" fill-opacity=".15"/><path d="M183.423 85.77l.871-2.24 6.262-4.697a4 4 0 014.856.043L202 84l-18.577 1.77z" fill="#E6E6E6"/></g><g transform="translate(86, 134)"><path fill-rule="evenodd" clip-rule="evenodd" d="M29 15.609C30.41 25.23 41.062 33 54 33c12.968 0 23.646-7.817 25-18.26.101-.4-.225-1.74-2.174-1.74H31.174c-1.79 0-2.304 1.24-2.174 2.609z" fill="#000" fill-opacity=".7"/><path d="M70 13H39a5 5 0 005 5h21a5 5 0 005-5z" fill="#fff"/><path d="M43 23.5l.001.067-.001.063v8.87C43 38.851 48.149 44 54.5 44S66 38.851 66 32.5v-8.87l-.001-.063L66 23.5c0-1.933-2.91-3.5-6.5-3.5-2.01 0-3.808.491-5 1.264-1.192-.773-2.99-1.264-5-1.264-3.59 0-6.5 1.567-6.5 3.5z" fill="#FF4F6D"/></g><g transform="translate(112, 122)"><path fill-rule="evenodd" clip-rule="evenodd" d="M16 8c0 4.418 5.373 8 12 8s12-3.582 12-8" fill="#000" fill-opacity=".16"/></g><g transform="translate(84, 90)"><path d="M44 22c0 7.732-6.268 14-14 14s-14-6.268-14-14S22.268 8 30 8s14 6.268 14 14zm52 0c0 7.732-6.268 14-14 14s-14-6.268-14-14S74.268 8 82 8s14 6.268 14 14z" fill="#fff"/><path d="M36 14a6 6 0 11-12 0 6 6 0 0112 0zm52 0a6 6 0 11-12 0 6 6 0 0112 0z" fill="#000" fill-opacity=".7"/></g><g transform="translate(84, 82)"><path fill-rule="evenodd" clip-rule="evenodd" d="M22.766 1.578l.911-.402C28.92-.905 36.865-.033 41.723 2.299c.567.272.18 1.153-.402 1.108-14.919-1.151-24.963 8.146-28.375 14.44-.101.187-.407.208-.482.034-2.308-5.319 4.45-13.985 10.302-16.303zm66.468 0l-.911-.402C83.08-.905 75.135-.033 70.277 2.299c-.567.272-.18 1.153.402 1.108 14.919-1.151 24.963 8.146 28.375 14.44.101.187.407.208.483.034 2.307-5.319-4.45-13.985-10.303-16.303z" fill="#000" fill-opacity=".6"/></g><g transform="translate(7, 0)"><path d="M67 105.022c11.383-.72 24.676-14.395 31.98-33.943C108.789 72.94 120.04 74 132 74c12.547 0 24.312-1.165 34.45-3.2 7.381 19.964 21.012 33.873 32.55 34.244V88c0-26.44-15.548-49.25-38.001-59.784C152.183 26.794 142.358 26 132 26c-9.204 0-17.987.627-26.015 1.764C83.004 38.087 67 61.174 67 88v17.022z" fill="#000" fill-opacity=".16"/><path d="M73 192c4.72 0 9.281-.681 13.59-1.951a72.078 72.078 0 0013.689 9.103A73.084 73.084 0 01105 199h4v-18.389c-17.53-8.328-30.048-25.496-31.791-45.744C71.43 134.002 67 129.019 67 123v-13a12 12 0 0110-11.834v-.743c8.464-5.38 16.755-16.359 21.98-30.344C108.789 68.94 120.04 70 132 70c12.547 0 24.312-1.165 34.45-3.2 5.315 14.375 13.869 25.61 22.55 30.913v.453c.438.073.868.17 1.289.29a24.39 24.39 0 003.235 1.471A11.989 11.989 0 01199 110v13c0 6.019-4.431 11.002-10.209 11.867-1.743 20.248-14.26 37.416-31.791 45.744V199h4c1.586 0 3.161.051 4.721.152a72.081 72.081 0 0013.689-9.103A48.001 48.001 0 00193 192c26.51 0 48-21.49 48-48 0-14.409-6.349-27.335-16.402-36.134A43.804 43.804 0 00233 82c0-21.84-15.911-39.962-36.774-43.41C189.981 21.89 173.879 10 155 10a43.8 43.8 0 00-22 5.886A43.8 43.8 0 00111 10c-18.88 0-34.981 11.89-41.226 28.59C48.91 42.038 33 60.16 33 82a43.8 43.8 0 008.402 25.866C31.35 116.665 25 129.591 25 144c0 26.51 21.49 48 48 48z" fill="#C93305"/></g></g></svg>